<?xml version="1.0" standalone="no"?>
<!DOCTYPE svg PUBLIC "-//W3C//DTD SVG 20010904//EN"
 "http://www.w3.org/TR/2001/REC-SVG-20010904/DTD/svg10.dtd">
<svg version="1.0" xmlns="http://www.w3.org/2000/svg"
 width="256.000000pt" height="256.000000pt" viewBox="0 0 256.000000 256.000000"
 preserveAspectRatio="xMidYMid meet">
<metadata>
Created by potrace 1.11, written by Peter Selinger 2001-2013
</metadata>
<g transform="translate(0.000000,256.000000) scale(0.100000,-0.100000)"
fill="#000000" stroke="none">
<path d="M1140 2553 c-147 -20 -368 -82 -378 -105 -2 -5 -10 -8 -17 -8 -7 0
-41 -16 -74 -35 -340 -192 -567 -499 -647 -875 -29 -137 -23 -427 11 -550 1
-3 5 -18 9 -35 4 -16 10 -37 13 -45 3 -8 7 -19 8 -25 6 -24 47 -120 76 -177
167 -330 484 -578 849 -664 99 -24 144 -28 285 -29 176 0 248 10 395 57 325
104 599 338 753 644 33 66 111 274 102 274 -2 0 1 15 6 32 23 81 32 316 17
443 -19 163 -94 365 -193 519 -41 64 -134 178 -174 214 -14 13 -42 38 -61 56
-59 54 -148 116 -236 163 -80 43 -224 100 -273 109 -14 3 -28 7 -32 10 -4 2
-27 7 -51 10 -24 3 -50 8 -58 11 -17 6 -291 12 -330 6z"/>
</g>
</svg>
